<svg width="32" height="32" viewBox="0 0 32 32" fill="none" xmlns="http://www.w3.org/2000/svg">
<rect width="32" height="32" rx="16" fill="#302E2E"/>
<path d="M6.51154 23V21.7216L11.3127 16.4659C11.8761 15.8504 12.3401 15.3153 12.7047 14.8608C13.0693 14.4015 13.3392 13.9706 13.5144 13.5682C13.6943 13.161 13.7843 12.7348 13.7843 12.2898C13.7843 11.7784 13.6612 11.3357 13.415 10.9616C13.1735 10.5876 12.842 10.2988 12.4206 10.0952C11.9992 9.89157 11.5257 9.78977 11.0002 9.78977C10.4415 9.78977 9.95378 9.90578 9.53711 10.1378C9.12518 10.3651 8.80558 10.6847 8.5783 11.0966C8.35576 11.5085 8.2445 11.9915 8.2445 12.5455H6.56836C6.56836 11.6932 6.76486 10.9451 7.15785 10.3011C7.55084 9.6572 8.08588 9.1553 8.76296 8.79545C9.44478 8.43561 10.2095 8.25568 11.057 8.25568C11.9093 8.25568 12.6645 8.43561 13.3226 8.79545C13.9808 9.1553 14.4969 9.64062 14.8709 10.2514C15.245 10.8622 15.432 11.5417 15.432 12.2898C15.432 12.8248 15.3349 13.348 15.1408 13.8594C14.9514 14.366 14.62 14.9318 14.1465 15.5568C13.6777 16.1771 13.0267 16.9347 12.1934 17.8295L8.92631 21.3239V21.4375H15.6877V23H6.51154ZM20.2118 19.0227L20.1834 16.9489H20.5243L25.2971 12.0909H27.3709L22.2857 17.233H22.1436L20.2118 19.0227ZM18.6493 23V8.45455H20.3255V23H18.6493ZM25.5811 23L21.3198 17.6023L22.513 16.4375L27.7118 23H25.5811Z" fill="#EEEEEE"/>
</svg>
